<?xml version="1.0" encoding="UTF-8"?>
<svg width="15px" height="10px" viewBox="0 0 15 10" version="1.1" xmlns="http://www.w3.org/2000/svg" xmlns:xlink="http://www.w3.org/1999/xlink">
    <title>0E05066B-28BC-4631-B7EE-523BFD630F54</title>
    <g id="simplified-version" stroke="none" stroke-width="1" fill="none" fill-rule="evenodd" opacity="0.5">
        <g id="st-d.registration" transform="translate(-625.000000, -665.000000)" fill="#FFFFFF" fill-rule="nonzero">
            <g id="Group-2" transform="translate(320.000000, 150.000000)">
                <g id="input" transform="translate(50.000000, 490.000000)">
                    <g id="Group-2" transform="translate(30.000000, 20.000000)">
                        <path d="M239.964155,9.73400703 L239.988982,9.85153313 L239.996002,9.90996805 L240,10 L239.997212,10.0752385 L239.97976,10.2007258 L239.950262,10.3121425 L239.906327,10.4232215 L239.854005,10.5207088 L239.780311,10.625449 L239.707107,10.7071068 L235.707107,14.7071068 C235.316582,15.0976311 234.683418,15.0976311 234.292893,14.7071068 C233.932409,14.3466228 233.90468,13.7793918 234.209705,13.3871006 L234.292893,13.2928932 L236.585,11 L226,11 C225.447715,11 225,10.5522847 225,10 C225,9.48716416 225.38604,9.06449284 225.883379,9.00672773 L226,9 L236.585,9 L234.292893,6.70710678 C233.932409,6.34662282 233.90468,5.77939176 234.209705,5.38710056 L234.292893,5.29289322 C234.653377,4.93240926 235.220608,4.90467972 235.612899,5.20970461 L235.707107,5.29289322 L239.707107,9.29289322 C239.742501,9.32828727 239.774687,9.36567442 239.803665,9.40469339 L239.875329,9.5159379 L239.928775,9.62866398 L239.964155,9.73400703 Z" id="arrow-right"></path>
                    </g>
                </g>
            </g>
        </g>
    </g>
</svg>